<?xml version="1.0" encoding="UTF-8" standalone="no"?>
<!-- Created with Inkscape (http://www.inkscape.org/) -->

<svg
   width="128.39075mm"
   height="123.58539mm"
   viewBox="0 0 128.39075 123.58539"
   version="1.1"
   id="svg1"
   inkscape:version="1.3.2 (091e20e, 2023-11-25, custom)"
   sodipodi:docname="mitemite logo you have never seen such mastery.svg"
   xmlns:inkscape="http://www.inkscape.org/namespaces/inkscape"
   xmlns:sodipodi="http://sodipodi.sourceforge.net/DTD/sodipodi-0.dtd"
   xmlns="http://www.w3.org/2000/svg"
   xmlns:svg="http://www.w3.org/2000/svg">
  <sodipodi:namedview
     id="namedview1"
     pagecolor="#505050"
     bordercolor="#ffffff"
     borderopacity="1"
     inkscape:showpageshadow="0"
     inkscape:pageopacity="0"
     inkscape:pagecheckerboard="1"
     inkscape:deskcolor="#505050"
     inkscape:document-units="mm"
     inkscape:zoom="0.35355339"
     inkscape:cx="750.9474"
     inkscape:cy="759.43268"
     inkscape:window-width="1920"
     inkscape:window-height="991"
     inkscape:window-x="-9"
     inkscape:window-y="-9"
     inkscape:window-maximized="1"
     inkscape:current-layer="g35" />
  <defs
     id="defs1" />
  <g
     inkscape:label="Capa 1 copia"
     inkscape:groupmode="layer"
     id="g43"
     style="display:inline"
     transform="translate(-22.22169,-62.90861)">
    <path
       style="fill:none;stroke:#ffb800;stroke-width:15;stroke-dasharray:none;stroke-opacity:1"
       d="M 29.731247,182 C 30.175955,119.13413 57.300492,95.784526 88.797916,94.976036 114.69312,95.891025 141.12551,111.39266 143.11541,182"
       id="path38"
       sodipodi:nodetypes="ccc" />
    <path
       style="fill:#ffb800;fill-opacity:1;stroke:none;stroke-width:2.5;stroke-dasharray:none;stroke-opacity:1"
       d="M 83.446564,89.242445 C 76.328875,82.767313 72.097513,79.559432 62.435617,62.908613 c 9.01425,2.23067 15.704186,8.563423 17.822351,10.66943 3.537155,3.727711 5.875155,8.66198 7.775468,14.231005 0,0 0.179321,-3.22352 4.403711,-12.940363 C 93.153064,72.775291 97.222276,68.861773 105,63.787038 104.22913,78.030029 92.52475,88.764646 92.52475,88.764646"
       id="path39"
       sodipodi:nodetypes="ccccccc" />
    <ellipse
       style="fill:#ffb800;fill-opacity:1;stroke:none;stroke-width:0.499999;stroke-dasharray:none;stroke-opacity:1"
       id="ellipse39"
       cx="61.349419"
       cy="167.32529"
       rx="5.2557917"
       ry="18.825289" />
    <ellipse
       style="fill:#ffe71d;fill-opacity:1;stroke:none;stroke-width:0.5;stroke-dasharray:none;stroke-opacity:1"
       id="ellipse40"
       cx="109.76588"
       cy="167.32529"
       rx="5.3513513"
       ry="18.825289" />
    <path
       style="fill:#ffb800;fill-opacity:1;stroke:#ffb800;stroke-width:0.499999;stroke-dasharray:none;stroke-opacity:1"
       d="m 49.499998,164.07625 c 1.07909,-2.80345 3.166105,-5.83925 5.542473,-7.74034 3.555651,-2.84453 7.42727,-5.13789 11.562742,-6.97587 0.309991,-0.13778 2.580113,-0.92999 2.580113,-1.05116 0,-0.36268 -5.423389,-0.28668 -5.733589,-0.28668 -6.892005,0 -11.90552,4.99031 -15.576254,10.12934"
       id="path40" />
    <ellipse
       style="fill:#ffb800;fill-opacity:1;stroke:none;stroke-width:0.499999;stroke-dasharray:none;stroke-opacity:1"
       id="ellipse41"
       cx="-109.76588"
       cy="167.32529"
       rx="5.2557917"
       ry="18.825289"
       transform="scale(-1,1)" />
    <path
       style="fill:#ffb800;fill-opacity:1;stroke:#ffb800;stroke-width:0.499999;stroke-dasharray:none;stroke-opacity:1"
       d="m 121.61529,164.07625 c -1.07909,-2.80345 -3.1661,-5.83925 -5.54247,-7.74034 -3.55565,-2.84453 -7.42727,-5.13789 -11.56274,-6.97587 -0.30999,-0.13778 -2.58012,-0.92999 -2.58012,-1.05116 0,-0.36268 5.42339,-0.28668 5.73359,-0.28668 6.89201,0 11.90552,4.99031 15.57626,10.12934"
       id="path41" />
    <path
       style="fill:#ffb800;fill-opacity:1;stroke:#ffb800;stroke-width:9.5;stroke-linecap:round;stroke-linejoin:bevel;stroke-dasharray:none;stroke-opacity:1"
       d="M 26.971689,181.744 H 145.861"
       id="path42"
       sodipodi:nodetypes="cc" />
    <path
       style="fill:#ffb800;fill-opacity:1;stroke:none;stroke-width:9.5;stroke-linecap:round;stroke-linejoin:bevel;stroke-dasharray:none;stroke-opacity:1"
       d="M 45.400394,147.00329 C 80.28336,132.89951 94.502465,132.90738 127.55941,148.31291 126.7916,120.78138 113.9157,95.567091 88.797915,94.976036 62.649525,94.36073 45.542306,121.84336 45.400394,147.00329 Z"
       id="path43"
       sodipodi:nodetypes="ccsc"
       inkscape:export-filename="mitemite-logo.svg"
       inkscape:export-xdpi="96"
       inkscape:export-ydpi="96" />
  </g>
</svg>
